<?xml version="1.0" encoding="UTF-8"?>
<svg width="1200pt" height="1200pt" version="1.1" viewBox="0 0 1200 1200" xmlns="http://www.w3.org/2000/svg">
 <path d="m418.63 373.29c-37.473 0-68.016 30.539-68.016 68.016 0 37.473 30.539 68.016 68.016 68.016 37.473 0 68.016-30.539 68.016-68.016 0-37.473-30.539-68.016-68.016-68.016zm362.74 0c-37.473 0-68.016 30.539-68.016 68.016 0 37.473 30.539 68.016 68.016 68.016 37.473 0 68.016-30.539 68.016-68.016 0-37.473-30.539-68.016-68.016-68.016zm-362.74 15.113c29.305 0 52.898 23.594 52.898 52.898 0 29.305-23.594 52.898-52.898 52.898-29.305 0-52.898-23.594-52.898-52.898 0-29.305 23.594-52.898 52.898-52.898zm181.37 0c-45.82 0-83.129 37.309-83.129 83.129s37.309 83.129 83.129 83.129 83.129-37.309 83.129-83.129-37.309-83.129-83.129-83.129zm181.37 0c29.305 0 52.898 23.594 52.898 52.898 0 29.305-23.594 52.898-52.898 52.898-29.305 0-52.898-23.594-52.898-52.898 0-29.305 23.594-52.898 52.898-52.898zm-181.37 15.113c37.652 0 68.016 30.363 68.016 68.016s-30.363 68.016-68.016 68.016-68.016-30.363-68.016-68.016 30.363-68.016 68.016-68.016zm-173.81 143.59c-40.934 0-77.918 9.2266-105.33 25.035-27.41 15.805-45.816 38.922-45.816 65.652v105.8c0 3.957 3.6016 7.5547 7.5586 7.5586h151.14v68.016c0 3.957 3.6016 7.5547 7.5586 7.5586h317.4c3.957 0 7.5586-3.6016 7.5586-7.5586v-68.016h151.14c3.957 0 7.5586-3.6016 7.5586-7.5586v-105.8c0-26.727-18.406-49.844-45.816-65.652-27.41-15.809-64.395-25.035-105.33-25.035-62.281 0-115.7 21-139.1 55.023-11.215-1.3164-22.777-2.125-34.715-2.125s-23.504 0.80859-34.715 2.125c-23.406-34.023-76.824-55.023-139.11-55.023zm0 15.113c54.328 0 100.43 18.273 122.09 42.508-24.316 4.4258-46.168 11.785-64.234 21.961-30.16 16.992-50.301 42.09-50.301 71.562v37.785h-143.59v-98.242c0-19.793 13.762-38.539 38.258-52.664 24.496-14.125 59.156-22.906 97.77-22.906zm347.63 0c38.613 0 73.273 8.7812 97.77 22.906 24.496 14.125 38.258 32.871 38.258 52.664v98.242h-143.59v-37.785c0-29.473-20.141-54.566-50.301-71.559-18.07-10.18-39.922-17.535-64.234-21.961 21.668-24.238 67.766-42.508 122.09-42.508zm-173.81 52.898c42.855 0 81.426 9.4688 108.63 24.797 27.211 15.328 42.508 35.703 42.508 58.332v113.36h-302.29v-113.36c0-22.629 15.301-43.004 42.508-58.332 27.211-15.328 65.781-24.797 108.63-24.797z" fill="#fff"/>
</svg>
