<?xml version="1.0" encoding="UTF-8"?>
<svg width="1200pt" height="1200pt" version="1.1" viewBox="0 0 1200 1200" xmlns="http://www.w3.org/2000/svg">
 <g fill="#fff" fill-rule="evenodd">
  <path d="m209.01 230.63h781.98c79.277 0 144.14 72.07 144.14 162.16v414.41c0 90.09-64.863 162.16-144.14 162.16h-781.98c-79.277 0-144.14-72.07-144.14-162.16v-414.41c0-90.09 64.863-162.16 144.14-162.16zm14.414 61.262h756.76c61.262 0 93.695 64.863 93.695 133.33v353.15c0 72.07-32.434 129.73-93.695 129.73h-756.76c-64.863 0-100.9-57.656-100.9-129.73v-363.96c0-68.469 36.035-122.52 100.9-122.52z"/>
  <path d="m767.57 601.8-165.77 108.11-169.37 108.11v-436.04l169.37 108.11z"/>
 </g>
</svg>
