<?xml version="1.0" encoding="UTF-8"?>
<svg width="1200pt" height="1200pt" version="1.1" viewBox="0 0 1200 1200" xmlns="http://www.w3.org/2000/svg">
 <path d="m426.51 526.51-73.484 73.488 73.488 73.488c14.648 14.648 14.648 38.379 0 53.027-7.3242 7.3203-16.922 10.984-26.516 10.984s-19.191-3.6641-26.512-10.988l-100-100c-14.648-14.648-14.648-38.379 0-53.027l100-100c14.648-14.648 38.379-14.648 53.027 0s14.648 38.383-0.003906 53.027zm500 46.977-100-100c-14.648-14.648-38.379-14.648-53.027 0-14.648 14.648-14.648 38.379 0 53.027l73.488 73.484-73.488 73.488c-14.648 14.648-14.648 38.379 0 53.027 7.3242 7.3203 16.922 10.984 26.516 10.984s19.191-3.6641 26.512-10.988l100-100c14.652-14.645 14.652-38.379 0-53.023zm210.99 26.512c0 296.39-241.11 537.5-537.5 537.5s-537.5-241.11-537.5-537.5 241.11-537.5 537.5-537.5 537.5 241.11 537.5 537.5zm-75 0c0-255.03-207.47-462.5-462.5-462.5s-462.5 207.47-462.5 462.5 207.47 462.5 462.5 462.5 462.5-207.47 462.5-462.5zm-397.73-151.12c-19.043-8.1055-41.09 0.63281-49.242 19.68l-100 233.3c-8.1523 19.043 0.66016 41.113 19.703 49.27 4.8086 2.0508 9.8164 3.0273 14.746 3.0273 14.551 0 28.395-8.4961 34.496-22.707l100-233.3c8.1562-19.047-0.66016-41.117-19.703-49.27z" fill="#fff"/>
</svg>
